<svg width="40" height="40" viewBox="0 0 40 40" fill="none" xmlns="http://www.w3.org/2000/svg"><rect x="6" y="6" width="28" height="28" rx="6" fill="var(--hoverBgColor)" fill-opacity="0.6"></rect><g clip-path="url(#clip0_6_8421)"><path opacity="var(--shareOpacity)" d="M21.8518 16.037V12.3333L28.3333 18.8148L21.8518 25.2963V21.5C17.2222 21.5 13.9814 22.9815 11.6666 26.2222C12.5926 21.5926 15.3703 16.9629 21.8518 16.037Z" fill="var(--shareColor)"></path><g filter="url(#filter0_d_6_8421)"><path fill-rule="evenodd" clip-rule="evenodd" d="M13.1836 21.902C14.7479 19.0104 17.443 16.6668 21.8519 16.037V12.3333L28.3334 18.8148L21.8519 25.2963V21.5C21.1542 21.5 20.4881 21.5336 19.8519 21.6019C17.867 21.8148 16.1737 22.3644 14.7239 23.2798C13.555 24.0178 12.5443 24.9936 11.6667 26.2222C11.9628 24.7417 12.4482 23.2613 13.1836 21.902ZM19.8519 23.614V25.2963C19.8519 26.1052 20.3392 26.8345 21.0865 27.144C21.8339 27.4536 22.6941 27.2825 23.2661 26.7105L29.7476 20.229C30.5286 19.448 30.5286 18.1816 29.7476 17.4006L23.2661 10.9191C22.6941 10.3471 21.8339 10.176 21.0865 10.4856C20.3392 10.7951 19.8519 11.5244 19.8519 12.3333V14.3957C17.0006 15.1229 14.8011 16.5605 13.1708 18.4237C11.2569 20.611 10.2154 23.2808 9.70553 25.83C9.52063 26.7545 10.0065 27.6826 10.8716 28.0574C11.7368 28.4322 12.7462 28.1519 13.2942 27.3847C14.8398 25.2208 16.8675 23.9787 19.8519 23.614Z" fill="white"></path></g></g><defs><filter id="filter0_d_6_8421" x="5.6665" y="6.33325" width="28.6669" height="25.8891" filterUnits="userSpaceOnUse" color-interpolation-filters="sRGB"><feFlood flood-opacity="0" result="BackgroundImageFix"></feFlood><feColorMatrix in="SourceAlpha" type="matrix" values="0 0 0 0 0 0 0 0 0 0 0 0 0 0 0 0 0 0 127 0" result="hardAlpha"></feColorMatrix><feOffset></feOffset><feGaussianBlur stdDeviation="2"></feGaussianBlur><feComposite in2="hardAlpha" operator="out"></feComposite><feColorMatrix type="matrix" values="0 0 0 0 0 0 0 0 0 0 0 0 0 0 0 0 0 0 0.15 0"></feColorMatrix><feBlend mode="normal" in2="BackgroundImageFix" result="effect1_dropShadow_6_8421"></feBlend><feBlend mode="normal" in="SourceGraphic" in2="effect1_dropShadow_6_8421" result="shape"></feBlend></filter><clipPath id="clip0_6_8421"><rect width="24" height="24" fill="black" transform="translate(8 8)"></rect></clipPath></defs></svg>